<mxfile host="app.diagrams.net" modified="2023-02-07T09:45:08.487Z" agent="5.0 (Macintosh; Intel Mac OS X 10_15_7) AppleWebKit/537.36 (KHTML, like Gecko) Chrome/108.0.0.0 Safari/537.36" etag="qI1S0MFd2Fk6SENoPuXb" version="20.8.15" type="github" pages="2">
  <diagram name="第 1 页" id="XhUzmyq-YkuXwWhYe8HO">
    <mxGraphModel dx="2074" dy="1163" grid="1" gridSize="10" guides="1" tooltips="1" connect="1" arrows="1" fold="1" page="1" pageScale="1" pageWidth="2339" pageHeight="3300" math="0" shadow="0">
      <root>
        <mxCell id="0" />
        <mxCell id="1" parent="0" />
        <mxCell id="b93YyMxRGzZXySlz8wEZ-2" value="" style="rounded=0;whiteSpace=wrap;html=1;fillColor=#FAE5C7;labelBackgroundColor=none;strokeColor=#0F8B8D;fontColor=#143642;" vertex="1" parent="1">
          <mxGeometry x="920" y="120" width="640" height="500" as="geometry" />
        </mxCell>
        <mxCell id="b93YyMxRGzZXySlz8wEZ-3" value="" style="rounded=0;whiteSpace=wrap;html=1;fillColor=#FAE5C7;labelBackgroundColor=none;strokeColor=#0F8B8D;fontColor=#143642;" vertex="1" parent="1">
          <mxGeometry x="670" y="120" width="210" height="500" as="geometry" />
        </mxCell>
        <mxCell id="b93YyMxRGzZXySlz8wEZ-4" value="" style="rounded=0;whiteSpace=wrap;html=1;fillColor=#FAE5C7;labelBackgroundColor=none;strokeColor=#0F8B8D;fontColor=#143642;" vertex="1" parent="1">
          <mxGeometry x="160" y="120" width="480" height="500" as="geometry" />
        </mxCell>
        <mxCell id="b93YyMxRGzZXySlz8wEZ-5" value="NavigationContext" style="swimlane;fontStyle=1;align=center;verticalAlign=top;childLayout=stackLayout;horizontal=1;startSize=26;horizontalStack=0;resizeParent=1;resizeParentMax=0;resizeLast=0;collapsible=1;marginBottom=0;labelBackgroundColor=none;fillColor=#FAE5C7;strokeColor=#0F8B8D;fontColor=#143642;" vertex="1" parent="1">
          <mxGeometry x="420" y="250" width="160" height="86" as="geometry" />
        </mxCell>
        <mxCell id="b93YyMxRGzZXySlz8wEZ-6" value="+ basename: string" style="text;strokeColor=none;fillColor=none;align=left;verticalAlign=top;spacingLeft=4;spacingRight=4;overflow=hidden;rotatable=0;points=[[0,0.5],[1,0.5]];portConstraint=eastwest;labelBackgroundColor=none;fontColor=#143642;" vertex="1" parent="b93YyMxRGzZXySlz8wEZ-5">
          <mxGeometry y="26" width="160" height="26" as="geometry" />
        </mxCell>
        <mxCell id="b93YyMxRGzZXySlz8wEZ-7" value="+ navigator: Navigator" style="text;strokeColor=none;fillColor=none;align=left;verticalAlign=top;spacingLeft=4;spacingRight=4;overflow=hidden;rotatable=0;points=[[0,0.5],[1,0.5]];portConstraint=eastwest;labelBackgroundColor=none;fontColor=#143642;" vertex="1" parent="b93YyMxRGzZXySlz8wEZ-5">
          <mxGeometry y="52" width="160" height="26" as="geometry" />
        </mxCell>
        <mxCell id="b93YyMxRGzZXySlz8wEZ-8" value="" style="line;strokeWidth=1;fillColor=none;align=left;verticalAlign=middle;spacingTop=-1;spacingLeft=3;spacingRight=3;rotatable=0;labelPosition=right;points=[];portConstraint=eastwest;strokeColor=#0F8B8D;labelBackgroundColor=none;fontColor=#143642;" vertex="1" parent="b93YyMxRGzZXySlz8wEZ-5">
          <mxGeometry y="78" width="160" height="8" as="geometry" />
        </mxCell>
        <mxCell id="b93YyMxRGzZXySlz8wEZ-9" value="LocationContext" style="swimlane;fontStyle=1;align=center;verticalAlign=top;childLayout=stackLayout;horizontal=1;startSize=26;horizontalStack=0;resizeParent=1;resizeParentMax=0;resizeLast=0;collapsible=1;marginBottom=0;labelBackgroundColor=none;fillColor=#FAE5C7;strokeColor=#0F8B8D;fontColor=#143642;" vertex="1" parent="1">
          <mxGeometry x="420" y="410" width="160" height="60" as="geometry" />
        </mxCell>
        <mxCell id="b93YyMxRGzZXySlz8wEZ-10" value="+ location: Location" style="text;strokeColor=none;fillColor=none;align=left;verticalAlign=top;spacingLeft=4;spacingRight=4;overflow=hidden;rotatable=0;points=[[0,0.5],[1,0.5]];portConstraint=eastwest;labelBackgroundColor=none;fontColor=#143642;" vertex="1" parent="b93YyMxRGzZXySlz8wEZ-9">
          <mxGeometry y="26" width="160" height="26" as="geometry" />
        </mxCell>
        <mxCell id="b93YyMxRGzZXySlz8wEZ-11" value="" style="line;strokeWidth=1;fillColor=none;align=left;verticalAlign=middle;spacingTop=-1;spacingLeft=3;spacingRight=3;rotatable=0;labelPosition=right;points=[];portConstraint=eastwest;strokeColor=#0F8B8D;labelBackgroundColor=none;fontColor=#143642;" vertex="1" parent="b93YyMxRGzZXySlz8wEZ-9">
          <mxGeometry y="52" width="160" height="8" as="geometry" />
        </mxCell>
        <mxCell id="b93YyMxRGzZXySlz8wEZ-12" value="Navigator" style="swimlane;fontStyle=1;align=center;verticalAlign=top;childLayout=stackLayout;horizontal=1;startSize=26;horizontalStack=0;resizeParent=1;resizeParentMax=0;resizeLast=0;collapsible=1;marginBottom=0;labelBackgroundColor=none;fillColor=#FAE5C7;strokeColor=#0F8B8D;fontColor=#143642;" vertex="1" parent="1">
          <mxGeometry x="200" y="250" width="160" height="112" as="geometry" />
        </mxCell>
        <mxCell id="b93YyMxRGzZXySlz8wEZ-13" value="" style="line;strokeWidth=1;fillColor=none;align=left;verticalAlign=middle;spacingTop=-1;spacingLeft=3;spacingRight=3;rotatable=0;labelPosition=right;points=[];portConstraint=eastwest;strokeColor=#0F8B8D;labelBackgroundColor=none;fontColor=#143642;" vertex="1" parent="b93YyMxRGzZXySlz8wEZ-12">
          <mxGeometry y="26" width="160" height="8" as="geometry" />
        </mxCell>
        <mxCell id="b93YyMxRGzZXySlz8wEZ-14" value="+ push(): void" style="text;strokeColor=none;fillColor=none;align=left;verticalAlign=top;spacingLeft=4;spacingRight=4;overflow=hidden;rotatable=0;points=[[0,0.5],[1,0.5]];portConstraint=eastwest;labelBackgroundColor=none;fontColor=#143642;" vertex="1" parent="b93YyMxRGzZXySlz8wEZ-12">
          <mxGeometry y="34" width="160" height="26" as="geometry" />
        </mxCell>
        <mxCell id="b93YyMxRGzZXySlz8wEZ-15" value="+ replace(): void" style="text;strokeColor=none;fillColor=none;align=left;verticalAlign=top;spacingLeft=4;spacingRight=4;overflow=hidden;rotatable=0;points=[[0,0.5],[1,0.5]];portConstraint=eastwest;labelBackgroundColor=none;fontColor=#143642;" vertex="1" parent="b93YyMxRGzZXySlz8wEZ-12">
          <mxGeometry y="60" width="160" height="26" as="geometry" />
        </mxCell>
        <mxCell id="b93YyMxRGzZXySlz8wEZ-16" value="+ go(number): void" style="text;strokeColor=none;fillColor=none;align=left;verticalAlign=top;spacingLeft=4;spacingRight=4;overflow=hidden;rotatable=0;points=[[0,0.5],[1,0.5]];portConstraint=eastwest;labelBackgroundColor=none;fontColor=#143642;" vertex="1" parent="b93YyMxRGzZXySlz8wEZ-12">
          <mxGeometry y="86" width="160" height="26" as="geometry" />
        </mxCell>
        <mxCell id="b93YyMxRGzZXySlz8wEZ-17" style="edgeStyle=orthogonalEdgeStyle;rounded=0;orthogonalLoop=1;jettySize=auto;html=1;exitX=0;exitY=0.5;exitDx=0;exitDy=0;entryX=1.013;entryY=0.143;entryDx=0;entryDy=0;entryPerimeter=0;labelBackgroundColor=none;strokeColor=#A8201A;fontColor=default;" edge="1" parent="1" source="b93YyMxRGzZXySlz8wEZ-7" target="b93YyMxRGzZXySlz8wEZ-12">
          <mxGeometry relative="1" as="geometry" />
        </mxCell>
        <mxCell id="b93YyMxRGzZXySlz8wEZ-18" value="&lt;p style=&quot;margin:0px;margin-top:6px;text-align:center;&quot;&gt;&lt;b&gt;BroswerRouter&lt;/b&gt;&lt;/p&gt;&lt;hr&gt;&lt;p style=&quot;margin:0px;margin-left:8px;&quot;&gt;+ navigationContext: NavigationContext&lt;br&gt;+ locationContext: LocationContext&lt;/p&gt;&lt;p style=&quot;margin:0px;margin-left:8px;&quot;&gt;+ children: ReactElement&lt;/p&gt;" style="align=left;overflow=fill;html=1;dropTarget=0;labelBackgroundColor=none;fillColor=#FAE5C7;strokeColor=#0F8B8D;fontColor=#143642;" vertex="1" parent="1">
          <mxGeometry x="1130" y="180" width="230" height="90" as="geometry" />
        </mxCell>
        <mxCell id="b93YyMxRGzZXySlz8wEZ-19" value="" style="shape=component;jettyWidth=8;jettyHeight=4;labelBackgroundColor=none;fillColor=#FAE5C7;strokeColor=#0F8B8D;fontColor=#143642;" vertex="1" parent="b93YyMxRGzZXySlz8wEZ-18">
          <mxGeometry x="1" width="20" height="20" relative="1" as="geometry">
            <mxPoint x="-24" y="4" as="offset" />
          </mxGeometry>
        </mxCell>
        <mxCell id="b93YyMxRGzZXySlz8wEZ-20" style="edgeStyle=orthogonalEdgeStyle;rounded=0;orthogonalLoop=1;jettySize=auto;html=1;labelBackgroundColor=none;strokeColor=#A8201A;fontColor=default;" edge="1" parent="1" source="b93YyMxRGzZXySlz8wEZ-21" target="b93YyMxRGzZXySlz8wEZ-18">
          <mxGeometry relative="1" as="geometry" />
        </mxCell>
        <mxCell id="b93YyMxRGzZXySlz8wEZ-21" value="&lt;p style=&quot;margin:0px;margin-top:6px;text-align:center;&quot;&gt;&lt;b&gt;Routes&lt;/b&gt;&lt;/p&gt;&lt;hr&gt;&lt;p style=&quot;margin:0px;margin-left:8px;&quot;&gt;+ children: ReactElement&lt;/p&gt;&lt;p style=&quot;margin:0px;margin-left:8px;&quot;&gt;+ match(): void&lt;/p&gt;&lt;p style=&quot;margin:0px;margin-left:8px;&quot;&gt;通过过滤 children 的 path&amp;nbsp;&lt;br style=&quot;border-color: var(--border-color); padding: 0px; margin: 0px;&quot;&gt;属性，来显示匹配的 Route&lt;br&gt;&lt;/p&gt;" style="align=left;overflow=fill;html=1;dropTarget=0;labelBackgroundColor=none;fillColor=#FAE5C7;strokeColor=#0F8B8D;fontColor=#143642;" vertex="1" parent="1">
          <mxGeometry x="1000" y="342" width="180" height="108" as="geometry" />
        </mxCell>
        <mxCell id="b93YyMxRGzZXySlz8wEZ-22" value="" style="shape=component;jettyWidth=8;jettyHeight=4;labelBackgroundColor=none;fillColor=#FAE5C7;strokeColor=#0F8B8D;fontColor=#143642;" vertex="1" parent="b93YyMxRGzZXySlz8wEZ-21">
          <mxGeometry x="1" width="20" height="20" relative="1" as="geometry">
            <mxPoint x="-24" y="4" as="offset" />
          </mxGeometry>
        </mxCell>
        <mxCell id="b93YyMxRGzZXySlz8wEZ-23" style="edgeStyle=orthogonalEdgeStyle;rounded=0;orthogonalLoop=1;jettySize=auto;html=1;exitX=0.5;exitY=0;exitDx=0;exitDy=0;labelBackgroundColor=none;strokeColor=#A8201A;fontColor=default;" edge="1" parent="1" source="b93YyMxRGzZXySlz8wEZ-24" target="b93YyMxRGzZXySlz8wEZ-18">
          <mxGeometry relative="1" as="geometry" />
        </mxCell>
        <mxCell id="b93YyMxRGzZXySlz8wEZ-24" value="&lt;p style=&quot;margin:0px;margin-top:6px;text-align:center;&quot;&gt;&lt;b&gt;Link&lt;/b&gt;&lt;/p&gt;&lt;hr&gt;&lt;p style=&quot;margin:0px;margin-left:8px;&quot;&gt;+ to: string&lt;/p&gt;&lt;p style=&quot;margin:0px;margin-left:8px;&quot;&gt;+ children: ReactElement&lt;br&gt;+ onClick(): void&lt;/p&gt;&lt;p style=&quot;margin:0px;margin-left:8px;&quot;&gt;调用 navigator 方法跳转 url&lt;/p&gt;" style="align=left;overflow=fill;html=1;dropTarget=0;labelBackgroundColor=none;fillColor=#FAE5C7;strokeColor=#0F8B8D;fontColor=#143642;" vertex="1" parent="1">
          <mxGeometry x="1300" y="342" width="180" height="108" as="geometry" />
        </mxCell>
        <mxCell id="b93YyMxRGzZXySlz8wEZ-25" value="" style="shape=component;jettyWidth=8;jettyHeight=4;labelBackgroundColor=none;fillColor=#FAE5C7;strokeColor=#0F8B8D;fontColor=#143642;" vertex="1" parent="b93YyMxRGzZXySlz8wEZ-24">
          <mxGeometry x="1" width="20" height="20" relative="1" as="geometry">
            <mxPoint x="-24" y="4" as="offset" />
          </mxGeometry>
        </mxCell>
        <mxCell id="b93YyMxRGzZXySlz8wEZ-26" style="edgeStyle=orthogonalEdgeStyle;rounded=0;orthogonalLoop=1;jettySize=auto;html=1;labelBackgroundColor=none;strokeColor=#A8201A;fontColor=default;" edge="1" parent="1" source="b93YyMxRGzZXySlz8wEZ-27" target="b93YyMxRGzZXySlz8wEZ-21">
          <mxGeometry relative="1" as="geometry" />
        </mxCell>
        <mxCell id="b93YyMxRGzZXySlz8wEZ-27" value="&lt;p style=&quot;margin:0px;margin-top:6px;text-align:center;&quot;&gt;&lt;b&gt;Route&lt;/b&gt;&lt;/p&gt;&lt;hr&gt;&lt;p style=&quot;margin:0px;margin-left:8px;&quot;&gt;+ path: string&lt;/p&gt;&lt;p style=&quot;margin:0px;margin-left:8px;&quot;&gt;+ component: ReactElement&lt;/p&gt;" style="align=left;overflow=fill;html=1;dropTarget=0;labelBackgroundColor=none;fillColor=#FAE5C7;strokeColor=#0F8B8D;fontColor=#143642;" vertex="1" parent="1">
          <mxGeometry x="1000" y="502" width="180" height="90" as="geometry" />
        </mxCell>
        <mxCell id="b93YyMxRGzZXySlz8wEZ-28" value="" style="shape=component;jettyWidth=8;jettyHeight=4;labelBackgroundColor=none;fillColor=#FAE5C7;strokeColor=#0F8B8D;fontColor=#143642;" vertex="1" parent="b93YyMxRGzZXySlz8wEZ-27">
          <mxGeometry x="1" width="20" height="20" relative="1" as="geometry">
            <mxPoint x="-24" y="4" as="offset" />
          </mxGeometry>
        </mxCell>
        <mxCell id="b93YyMxRGzZXySlz8wEZ-29" value="«interface»&lt;br&gt;&lt;b&gt;useNavigation&lt;/b&gt;" style="html=1;labelBackgroundColor=none;fillColor=#FAE5C7;strokeColor=#0F8B8D;fontColor=#143642;" vertex="1" parent="1">
          <mxGeometry x="720" y="250" width="110" height="50" as="geometry" />
        </mxCell>
        <mxCell id="b93YyMxRGzZXySlz8wEZ-30" value="«interface»&lt;br&gt;&lt;b&gt;useLocation&lt;/b&gt;" style="html=1;labelBackgroundColor=none;fillColor=#FAE5C7;strokeColor=#0F8B8D;fontColor=#143642;" vertex="1" parent="1">
          <mxGeometry x="720" y="410" width="110" height="50" as="geometry" />
        </mxCell>
        <mxCell id="b93YyMxRGzZXySlz8wEZ-31" value="Context" style="text;html=1;strokeColor=none;fillColor=none;align=center;verticalAlign=middle;whiteSpace=wrap;rounded=0;labelBackgroundColor=none;fontColor=#143642;" vertex="1" parent="1">
          <mxGeometry x="180" y="140" width="60" height="30" as="geometry" />
        </mxCell>
        <mxCell id="b93YyMxRGzZXySlz8wEZ-32" value="Hooks" style="text;html=1;strokeColor=none;fillColor=none;align=center;verticalAlign=middle;whiteSpace=wrap;rounded=0;labelBackgroundColor=none;fontColor=#143642;" vertex="1" parent="1">
          <mxGeometry x="700" y="140" width="60" height="30" as="geometry" />
        </mxCell>
        <mxCell id="b93YyMxRGzZXySlz8wEZ-33" value="Components" style="text;html=1;strokeColor=none;fillColor=none;align=center;verticalAlign=middle;whiteSpace=wrap;rounded=0;labelBackgroundColor=none;fontColor=#143642;" vertex="1" parent="1">
          <mxGeometry x="960" y="140" width="60" height="30" as="geometry" />
        </mxCell>
      </root>
    </mxGraphModel>
  </diagram>
  <diagram id="iid3AmJ83BWMOyOzUiuB" name="第 2 页">
    <mxGraphModel dx="2074" dy="1163" grid="1" gridSize="10" guides="1" tooltips="1" connect="1" arrows="1" fold="1" page="1" pageScale="1" pageWidth="2339" pageHeight="3300" math="0" shadow="0">
      <root>
        <mxCell id="0" />
        <mxCell id="1" parent="0" />
        <mxCell id="YlCzAxwf-09muJaazgoy-3" value="" style="edgeStyle=orthogonalEdgeStyle;rounded=0;orthogonalLoop=1;jettySize=auto;html=1;" edge="1" parent="1" source="YlCzAxwf-09muJaazgoy-1" target="YlCzAxwf-09muJaazgoy-2">
          <mxGeometry relative="1" as="geometry" />
        </mxCell>
        <mxCell id="YlCzAxwf-09muJaazgoy-1" value="点击 Link 组件" style="rounded=1;whiteSpace=wrap;html=1;" vertex="1" parent="1">
          <mxGeometry x="780" y="250" width="120" height="60" as="geometry" />
        </mxCell>
        <mxCell id="YlCzAxwf-09muJaazgoy-5" value="" style="edgeStyle=orthogonalEdgeStyle;rounded=0;orthogonalLoop=1;jettySize=auto;html=1;" edge="1" parent="1" source="YlCzAxwf-09muJaazgoy-2" target="YlCzAxwf-09muJaazgoy-4">
          <mxGeometry relative="1" as="geometry">
            <Array as="points">
              <mxPoint x="840" y="500" />
              <mxPoint x="960" y="500" />
            </Array>
          </mxGeometry>
        </mxCell>
        <mxCell id="YlCzAxwf-09muJaazgoy-2" value="通过 &lt;br&gt;history.pushState &lt;br&gt;更新 URL" style="rounded=1;whiteSpace=wrap;html=1;" vertex="1" parent="1">
          <mxGeometry x="780" y="390" width="120" height="60" as="geometry" />
        </mxCell>
        <mxCell id="YlCzAxwf-09muJaazgoy-9" value="" style="edgeStyle=orthogonalEdgeStyle;rounded=0;orthogonalLoop=1;jettySize=auto;html=1;" edge="1" parent="1" source="YlCzAxwf-09muJaazgoy-4" target="YlCzAxwf-09muJaazgoy-8">
          <mxGeometry relative="1" as="geometry" />
        </mxCell>
        <mxCell id="YlCzAxwf-09muJaazgoy-4" value="新 URL" style="rounded=1;whiteSpace=wrap;html=1;" vertex="1" parent="1">
          <mxGeometry x="900" y="570" width="120" height="60" as="geometry" />
        </mxCell>
        <mxCell id="YlCzAxwf-09muJaazgoy-7" style="edgeStyle=orthogonalEdgeStyle;rounded=0;orthogonalLoop=1;jettySize=auto;html=1;entryX=0.5;entryY=0;entryDx=0;entryDy=0;exitX=0.5;exitY=1;exitDx=0;exitDy=0;" edge="1" parent="1" source="YlCzAxwf-09muJaazgoy-6" target="YlCzAxwf-09muJaazgoy-4">
          <mxGeometry relative="1" as="geometry">
            <Array as="points">
              <mxPoint x="1080" y="310" />
              <mxPoint x="1080" y="500" />
              <mxPoint x="960" y="500" />
            </Array>
          </mxGeometry>
        </mxCell>
        <mxCell id="YlCzAxwf-09muJaazgoy-6" value="页面刷新" style="rounded=1;whiteSpace=wrap;html=1;" vertex="1" parent="1">
          <mxGeometry x="1020" y="250" width="120" height="60" as="geometry" />
        </mxCell>
        <mxCell id="YlCzAxwf-09muJaazgoy-11" value="" style="edgeStyle=orthogonalEdgeStyle;rounded=0;orthogonalLoop=1;jettySize=auto;html=1;" edge="1" parent="1" source="YlCzAxwf-09muJaazgoy-8" target="YlCzAxwf-09muJaazgoy-10">
          <mxGeometry relative="1" as="geometry" />
        </mxCell>
        <mxCell id="YlCzAxwf-09muJaazgoy-8" value="通过 path 遍历匹配到对应的 Route 组件" style="rounded=1;whiteSpace=wrap;html=1;" vertex="1" parent="1">
          <mxGeometry x="900" y="680" width="120" height="60" as="geometry" />
        </mxCell>
        <mxCell id="YlCzAxwf-09muJaazgoy-10" value="渲染 Route 组件" style="rounded=1;whiteSpace=wrap;html=1;" vertex="1" parent="1">
          <mxGeometry x="900" y="800" width="120" height="60" as="geometry" />
        </mxCell>
      </root>
    </mxGraphModel>
  </diagram>
</mxfile>
